# xmcd
#
# Track frame offsets: 
#        150
#        18577
#        37870
#        61687
#        80447
#        93360
#        115885
#        136170
#        156450
#        182025
#        204295
#        222150
#
# Disc length: 3263 seconds
#
# Revision: 2
# Processed by: cddbd v1.5.2PL0 Copyright (c) Steve Scherf et al.
# Submitted via: ExactAudioCopy v1.0b3
#
DISCID=970cbd0c
DTITLE=Colonel Abrams - About Romance
DYEAR=1992
DGENRE=R&B
TTITLE0=Secret Mystery
TTITLE1=Never Be Another One
TTITLE2=Good Things
TTITLE3=You Don't Know (Somebody Tell Me)
TTITLE4=In The Groove (Acid Jazz Mix)
TTITLE5=Taking Chances
TTITLE6=In Between Us
TTITLE7=Turn Me Loose
TTITLE8=When Somebody Loves Somebody
TTITLE9=Straight Up
TTITLE10=People Of The Night Life
TTITLE11=In The Groove
EXTD=
EXTT0=
EXTT1=
EXTT2=
EXTT3=
EXTT4=
EXTT5=
EXTT6=
EXTT7=
EXTT8=
EXTT9=
EXTT10=
EXTT11=
PLAYORDER=
